# xmcd
#
# Track frame offsets:
#	150
#	12774
#	24902
#	33737
#	48102
#	58826
#	70682
#	86281
#	96505
#	106429
#	117228
#	131164
#	144285
#	155198
#
# Disc length: 2231 seconds
#
# Revision: 0
# Processed by: cddbd v1.5.2PL0 Copyright (c) Steve Scherf et al.
# Submitted via: dBpowerAMP V4.0
#
DISCID=ba08b50e
DTITLE=Slim Connor - Slim Connor Sings Country
DYEAR=1900
DGENRE=Country
TTITLE0=I Bet You Feel The Same
TTITLE1=Fire Of Gidgee Coal
TTITLE2=Life Is A Battle
TTITLE3=Gum Trees By The Roadway
TTITLE4=The Camp
TTITLE5=Walk A Country Mile
TTITLE6=Our Old Mallee Home
TTITLE7=Silver Spurs
TTITLE8=Snake In The Bar
TTITLE9=Mister Mississippi
TTITLE10=Parent Song
TTITLE11=Little Red Bonnet
TTITLE12=Cattle Call
TTITLE13=Paradise Valley
EXTD=
EXTT0=
EXTT1=
EXTT2=
EXTT3=
EXTT4=
EXTT5=
EXTT6=
EXTT7=
EXTT8=
EXTT9=
EXTT10=
EXTT11=
EXTT12=
EXTT13=
PLAYORDER=
